<svg xmlns="http://www.w3.org/2000/svg" width="20.345" height="20.345" viewBox="0 0 20.345 20.345">
  <path id="Path_501" data-name="Path 501" d="M-9.129-11.035a5.484,5.484,0,0,1-5.478,5.478,5.484,5.484,0,0,1-5.478-5.478,5.484,5.484,0,0,1,5.478-5.478A5.484,5.484,0,0,1-9.129-11.035ZM-2.869-.863a1.574,1.574,0,0,0-.452-1.1L-7.515-6.157A8.588,8.588,0,0,0-6-11.035a8.6,8.6,0,0,0-8.608-8.608,8.6,8.6,0,0,0-8.608,8.608,8.6,8.6,0,0,0,8.608,8.608A8.588,8.588,0,0,0-9.728-3.944L-5.534.238A1.534,1.534,0,0,0-4.434.7,1.576,1.576,0,0,0-2.869-.863Z" transform="translate(23.214 19.643)" fill="#2e2e2e"/>
</svg>
