<svg xmlns="http://www.w3.org/2000/svg" width="21.643" height="24" viewBox="0 0 21.643 24">
  <path id="Vector" d="M20.908,6.811a2.073,2.073,0,0,0-2.253-1.643h-2.62V3.927C16.035,1.763,13.729,0,10.9,0S5.764,1.763,5.764,3.927V5.169H3.144A2.073,2.073,0,0,0,.89,6.811L.1,23.2a.83.83,0,0,0,.262.561A1.017,1.017,0,0,0,1.1,24H20.751a1.21,1.21,0,0,0,.734-.24.654.654,0,0,0,.262-.561ZM7.7,3.886c0-1.362,1.415-2.444,3.2-2.444s3.2,1.082,3.2,2.444V5.169H7.7ZM2.1,22.518,2.882,6.891c0-.12.157-.2.314-.2h2.62V9.856a.9.9,0,0,0,1,.761c.576,0,1-.321,1-.761V6.691H14.2V9.856a.9.9,0,0,0,1,.761c.576,0,1-.321,1-.761V6.691h2.62a.323.323,0,0,1,.314.2l.786,15.626Z" transform="translate(-0.104)" fill="#fff"/>
</svg>
