<svg xmlns="http://www.w3.org/2000/svg" width="84.94" height="51" viewBox="0 0 84.94 51">
  <g id="Component_59_1" data-name="Component 59 – 1" transform="translate(1)">
    <path id="Path_231" data-name="Path 231" d="M951.075,297.9l-2.24-1.235-.672,1.279.389.975-.891.359-1.566-3.918.891-.359.794,1.987,1.523-2.922,1.169-.472-1.2,2.278,2.87,1.6-1.069.432Z" transform="translate(-932 -290)" fill="#0062ff"/>
    <path id="Path_232" data-name="Path 232" d="M952.829,292.87l1.889,1.527.835-2.284,1.047-.291-1.212,3.223.382,1.389-.926.257-.382-1.39-2.686-2.138Z" transform="translate(-932 -290)" fill="#0062ff"/>
    <path id="Path_233" data-name="Path 233" d="M961.2,293.056l2.277,1.776-1.159.206-1.6-1.235-1.076,1.712-1.1.2,1.526-2.442-2.23-1.722L959,291.34l1.56,1.205,1.04-1.668,1.105-.2-1.506,2.377Z" transform="translate(-932 -290)" fill="#0062ff"/>
    <path id="Path_234" data-name="Path 234" d="M971.039,294.221l-1.278-1.371-1.516.079.074,1.433-.953.05-.217-4.217,2.9-.151c1.025-.053,1.822.382,1.87,1.3a1.34,1.34,0,0,1-1.1,1.386l1.372,1.433-1.145.059Zm-.948-2.185c.5-.027.869-.166.845-.636s-.4-.571-.906-.545l-1.894.1.061,1.181,1.894-.1Z" transform="translate(-932 -290)" fill="#0062ff"/>
    <path id="Path_235" data-name="Path 235" d="M977.208,293.388l-2.537-.085-.48.878-1.025-.035L975.53,290l1.05.035,2.086,4.295-1.038-.034Zm-.377-.8-.813-1.747-.926,1.689Z" transform="translate(-932 -290)" fill="#0062ff"/>
    <path id="Path_236" data-name="Path 236" d="M983.892,291.488l-1.826-.2-.36,3.37-.955-.1.36-3.371-1.814-.2.088-.828,4.595.5-.089.828Z" transform="translate(-932 -290)" fill="#0062ff"/>
    <path id="Path_237" data-name="Path 237" d="M985.008,295.124l.709-4.163.947.163-.71,4.162Z" transform="translate(-932 -290)" fill="#0062ff"/>
    <path id="Path_238" data-name="Path 238" d="M993.542,292.691l-1.022,4.1-.815-.206-2.183-3.7-.739,2.961-.9-.228,1.022-4.1.989.25,2.046,3.5.7-2.809.9.227Z" transform="translate(-932 -290)" fill="#0062ff"/>
    <path id="Path_239" data-name="Path 239" d="M999.161,298.294a2.866,2.866,0,0,1-2.582.066c-1.576-.6-2.238-1.752-1.736-3.071s1.756-1.727,3.331-1.122a3.1,3.1,0,0,1,1.755,1.534l-.9.243a1.868,1.868,0,0,0-1.145-1.008c-1.026-.4-1.8-.175-2.132.7s.11,1.567,1.153,1.968a1.8,1.8,0,0,0,1.529.052l.146-.383-1.48-.569.279-.733,2.321.893-.543,1.426Z" transform="translate(-932 -290)" fill="#0062ff"/>
    <path id="Path_240" data-name="Path 240" d="M1002.98,299.132c7.4,4.335,11.96,10.29,11.96,16.863,0,13.258-18.566,24.005-41.47,24.005S932,329.253,932,315.995c0-6.552,4.534-12.49,11.884-16.822" transform="translate(-932 -290)" fill="none" stroke="#0062ff" stroke-linecap="round" stroke-width="2"/>
  </g>
</svg>
